HIERARCHY
ROOT WildBoar_ROOTSHJnt
{
	OFFSET 0.000000 44.410820 68.815338
	CHANNELS 6 Xposition Yposition Zposition Xrotation Yrotation Zrotation
	JOINT WildBoar_Spine_01SHJnt
	{
		OFFSET -0.000000 -13.726324 -0.500702
		CHANNELS 3 Xrotation Yrotation Zrotation
		JOINT WildBoar_Spine_02SHJnt
		{
			OFFSET -0.000000 -13.721075 -0.511734
			CHANNELS 3 Xrotation Yrotation Zrotation
			JOINT WildBoar_Spine_03SHJnt
			{
				OFFSET -0.000000 -13.733017 -0.763184
				CHANNELS 3 Xrotation Yrotation Zrotation
				JOINT WildBoar_Spine_04SHJnt
				{
					OFFSET 0.000000 -13.726805 1.066475
					CHANNELS 3 Xrotation Yrotation Zrotation
					JOINT WildBoar_Spine_TopSHJnt
					{
						OFFSET 0.000000 -13.726805 0.709183
						CHANNELS 3 Xrotation Yrotation Zrotation
						JOINT WildBoar_l_Clavicle_01_01SHJnt
						{
							OFFSET 8.670297 0.000000 0.000000
							CHANNELS 3 Xrotation Yrotation Zrotation
							JOINT WildBoar_l_FrontLeg_HipSHJnt
							{
								OFFSET 3.164961 0.548840 -12.164703
								CHANNELS 3 Xrotation Yrotation Zrotation
								JOINT WildBoar_l_FrontLeg_Knee1SHJnt
								{
									OFFSET 0.316314 -0.817221 -32.444130
									CHANNELS 3 Xrotation Yrotation Zrotation
									JOINT WildBoar_l_FrontLeg_Knee2SHJnt
									{
										OFFSET 0.171660 1.067869 -17.603088
										CHANNELS 3 Xrotation Yrotation Zrotation
										JOINT WildBoar_l_FrontLeg_AnkleSHJnt
										{
											OFFSET 0.012912 -0.586981 -1.322436
											CHANNELS 3 Xrotation Yrotation Zrotation
											JOINT WildBoar_l_FrontLeg_BallSHJnt
											{
												OFFSET -0.004807 -3.825893 -5.280976
												CHANNELS 3 Xrotation Yrotation Zrotation
												JOINT WildBoar_l_FrontLeg_ToeSHJnt
												{
													OFFSET -0.006160 -4.905069 -0.000002
													CHANNELS 3 Xrotation Yrotation Zrotation
													End Site
													{
														OFFSET 4.905067 -0.006161 -0.000003
													}
												}
											}
										}
									}
								}
							}
						}
						JOINT WildBoar_r_Clavicle_01_01SHJnt
						{
							OFFSET -8.670297 0.000000 0.000000
							CHANNELS 3 Xrotation Yrotation Zrotation
							JOINT WildBoar_r_FrontLeg_HipSHJnt
							{
								OFFSET -3.164964 0.548840 -12.164703
								CHANNELS 3 Xrotation Yrotation Zrotation
								JOINT WildBoar_r_FrontLeg_Knee1SHJnt
								{
									OFFSET -0.316322 -0.817221 -32.444130
									CHANNELS 3 Xrotation Yrotation Zrotation
									JOINT WildBoar_r_FrontLeg_Knee2SHJnt
									{
										OFFSET -0.171665 1.067869 -17.603088
										CHANNELS 3 Xrotation Yrotation Zrotation
										JOINT WildBoar_r_FrontLeg_AnkleSHJnt
										{
											OFFSET -0.012913 -0.586981 -1.322436
											CHANNELS 3 Xrotation Yrotation Zrotation
											JOINT WildBoar_r_FrontLeg_BallSHJnt
											{
												OFFSET 0.004806 -3.825893 -5.280976
												CHANNELS 3 Xrotation Yrotation Zrotation
												JOINT WildBoar_r_FrontLeg_ToeSHJnt
												{
													OFFSET 0.006160 -4.905069 -0.000002
													CHANNELS 3 Xrotation Yrotation Zrotation
													End Site
													{
														OFFSET 4.905068 0.006161 -0.000002
													}
												}
											}
										}
									}
								}
							}
						}
						JOINT WildBoar_Neck_01SHJnt
						{
							OFFSET -0.000000 -12.476246 -2.105774
							CHANNELS 3 Xrotation Yrotation Zrotation
							JOINT WildBoar_Neck_02SHJnt
							{
								OFFSET 0.000000 -10.017231 1.165779
								CHANNELS 3 Xrotation Yrotation Zrotation
								JOINT WildBoar_Neck_TopSHJnt
								{
									OFFSET 0.000000 -9.610825 0.768044
									CHANNELS 3 Xrotation Yrotation Zrotation
									JOINT WildBoar_Head_JawSHJnt
									{
										OFFSET -0.000001 -11.273338 -4.973049
										CHANNELS 3 Xrotation Yrotation Zrotation
										JOINT WildBoar_Head_JawEndSHJnt
										{
											OFFSET -0.000002 -22.190353 -15.124695
											CHANNELS 3 Xrotation Yrotation Zrotation
											End Site
											{
												OFFSET -0.000002 -22.110291 -15.241497
											}
										}
									}
									JOINT WildBoar_Head_TopSHJnt
									{
										OFFSET 0.000002 -15.944977 17.523094
										CHANNELS 3 Xrotation Yrotation Zrotation
										JOINT WildBoar_l_Ear_01_01SHJnt
										{
											OFFSET 10.362524 11.406597 -2.807991
											CHANNELS 3 Xrotation Yrotation Zrotation
											JOINT WildBoar_l_Ear_01_02SHJnt
											{
												OFFSET 6.918999 -0.514683 5.827293
												CHANNELS 3 Xrotation Yrotation Zrotation
												JOINT WildBoar_l_Ear_01_03SHJnt
												{
													OFFSET 5.957382 0.355659 6.469810
													CHANNELS 3 Xrotation Yrotation Zrotation
													End Site
													{
														OFFSET 5.020468 -6.741234 -2.612671
													}
												}
											}
										}
										JOINT WildBoar_r_Ear_01_01SHJnt
										{
											OFFSET -10.362526 11.406597 -2.807991
											CHANNELS 3 Xrotation Yrotation Zrotation
											JOINT WildBoar_r_Ear_01_02SHJnt
											{
												OFFSET -6.918997 -0.514683 5.827293
												CHANNELS 3 Xrotation Yrotation Zrotation
												JOINT WildBoar_r_Ear_01_03SHJnt
												{
													OFFSET -5.957380 0.355659 6.469810
													CHANNELS 3 Xrotation Yrotation Zrotation
													End Site
													{
														OFFSET -5.020468 -6.741234 -2.612671
													}
												}
											}
										}
										JOINT WildBoar_Nose_01_01SHJnt
										{
											OFFSET 0.146534 -15.145607 -20.472496
											CHANNELS 3 Xrotation Yrotation Zrotation
											JOINT WildBoar_Nose_01_02SHJnt
											{
												OFFSET -0.000001 -9.738365 -5.125526
												CHANNELS 3 Xrotation Yrotation Zrotation
												End Site
												{
													OFFSET 0.000001 -6.131317 9.138596
												}
											}
										}
									}
								}
							}
						}
					}
				}
			}
		}
	}
	JOINT WildBoar_l_HindLeg_HipSHJnt
	{
		OFFSET 11.907801 0.071259 -9.892372
		CHANNELS 3 Xrotation Yrotation Zrotation
		JOINT WildBoar_l_HindLeg_Knee1SHJnt
		{
			OFFSET -1.208079 8.601734 -32.196701
			CHANNELS 3 Xrotation Yrotation Zrotation
			JOINT WildBoar_l_HindLeg_Knee2SHJnt
			{
				OFFSET 0.929813 -5.149776 -18.902822
				CHANNELS 3 Xrotation Yrotation Zrotation
				JOINT WildBoar_l_HindLeg_AnkleSHJnt
				{
					OFFSET -0.016349 -0.419094 -2.601883
					CHANNELS 3 Xrotation Yrotation Zrotation
					JOINT WildBoar_l_HindLeg_BallSHJnt
					{
						OFFSET -0.062816 -2.064716 -5.221140
						CHANNELS 3 Xrotation Yrotation Zrotation
						JOINT WildBoar_l_HindLeg_ToeSHJnt
						{
							OFFSET 0.563698 -5.159508 -0.000093
							CHANNELS 3 Xrotation Yrotation Zrotation
							End Site
							{
								OFFSET 5.159507 0.563698 0.000025
							}
						}
					}
				}
			}
		}
	}
	JOINT WildBoar_r_HindLeg_HipSHJnt
	{
		OFFSET -11.907801 0.071259 -9.892372
		CHANNELS 3 Xrotation Yrotation Zrotation
		JOINT WildBoar_r_HindLeg_Knee1SHJnt
		{
			OFFSET 1.208084 8.601734 -32.196701
			CHANNELS 3 Xrotation Yrotation Zrotation
			JOINT WildBoar_r_HindLeg_Knee2SHJnt
			{
				OFFSET -0.929811 -5.149776 -18.902822
				CHANNELS 3 Xrotation Yrotation Zrotation
				JOINT WildBoar_r_HindLeg_AnkleSHJnt
				{
					OFFSET 0.016349 -0.419094 -2.601883
					CHANNELS 3 Xrotation Yrotation Zrotation
					JOINT WildBoar_r_HindLeg_BallSHJnt
					{
						OFFSET 0.062817 -2.064716 -5.221139
						CHANNELS 3 Xrotation Yrotation Zrotation
						JOINT WildBoar_r_HindLeg_ToeSHJnt
						{
							OFFSET -0.563698 -5.159508 -0.000092
							CHANNELS 3 Xrotation Yrotation Zrotation
							End Site
							{
								OFFSET 5.159507 -0.563698 -0.000023
							}
						}
					}
				}
			}
		}
	}
	JOINT WildBoar_Tail_01_01SHJnt
	{
		OFFSET 0.000000 20.717888 9.172180
		CHANNELS 3 Xrotation Yrotation Zrotation
		JOINT WildBoar_Tail_01_02SHJnt
		{
			OFFSET -0.000000 5.092255 -8.034218
			CHANNELS 3 Xrotation Yrotation Zrotation
			JOINT WildBoar_Tail_01_03SHJnt
			{
				OFFSET -0.000000 -0.708420 -11.714390
				CHANNELS 3 Xrotation Yrotation Zrotation
				End Site
				{
					OFFSET -0.000000 11.707321 -0.816906
				}
			}
		}
	}
}
MOTION
Frames: 4
Frame Time: 0.040000
0.000000 44.410820 68.815338 -0.000000 0.000000 -0.000000 0.000137 -0.000073 0.000002 -0.000000 0.000000 0.000000 0.000000 -0.000010 0.000000 -0.000000 -0.000000 -0.000000 -0.000000 -0.000000 -0.000000 -0.000000 0.000000 -0.000000 -0.000002 0.000007 0.000171 0.000006 -0.000004 0.000003 0.000000 0.000002 0.000001 0.000003 -0.000002 0.000001 -0.000000 -0.000014 0.000000 0.000000 -0.000000 0.000000 -0.000000 0.000000 -0.000000 -0.000001 -0.000003 -0.000061 -0.000000 0.000002 -0.000007 -0.000003 0.000005 -0.000002 0.000000 -0.000002 -0.000003 0.000000 -0.000020 -0.000000 -0.000000 -0.000000 -0.000000 -0.000000 -0.000002 0.000000 -0.000006 0.000010 -0.000001 -0.000000 -0.000010 0.000005 -16.076720 -0.000000 0.000003 -0.000012 -0.000000 -0.000000 0.000007 -0.000001 -0.000007 -0.000000 0.000003 0.000004 -0.000001 0.000003 -0.000000 -0.000001 0.000013 -0.000004 -0.000003 -0.000001 -0.000000 0.000001 -0.000007 -0.000012 0.000003 -0.000002 0.000003 -0.000000 -0.000000 -0.000000 -0.000009 -0.000000 -0.000000 0.000001 0.000007 0.000001 -0.000006 -0.000003 -0.000001 0.000007 0.000004 -0.000005 -0.000000 -0.000002 0.000001 -0.000000 0.000004 -0.000000 0.000000 0.000000 -0.000000 0.000004 -0.000014 -0.000001 -0.000006 -0.000001 0.000002 0.000007 -0.000004 0.000004 -0.000000 0.000005 -0.000002 0.000001 0.000006 0.000000 -0.000000 0.000000 0.000000 -0.000017 -0.000002 -0.000005 0.000005 0.000000 0.000000 -0.000000 0.000000 0.000000 
-13.489483 45.686913 62.777092 -0.000000 -9.182691 -0.000000 0.000113 -0.000058 0.000003 -0.000000 -0.000001 0.000001 -0.000000 -0.000010 -0.000000 0.000000 -0.000000 -0.000001 0.000000 -0.000000 -0.000001 0.000000 -0.000001 0.000000 -12.358711 -5.534529 4.327594 31.329412 0.080678 0.290688 -20.403998 0.107713 0.509513 2.895498 13.511082 -6.392998 -0.000000 -0.000014 0.000000 0.000000 0.000000 0.000000 0.000000 -0.000001 -0.000000 -20.564583 -7.014019 3.761530 56.325790 -0.247654 -0.465584 -37.230135 -0.012151 1.114081 3.118647 14.244669 -6.820254 0.000000 -0.000020 -0.000000 0.000000 -0.000000 0.000000 -1.017234 -1.335220 1.344951 -1.783385 -1.676364 2.108579 -3.932338 -0.849220 1.785227 -12.394596 -0.000001 0.000002 -0.000012 0.000000 0.000000 0.000009 -0.000002 -0.000007 0.000000 0.000005 0.000000 0.000001 -0.000003 -0.000004 -0.000001 0.000012 -0.000003 8.403974 11.011185 -0.817530 8.400510 10.175469 -2.110140 -0.000000 0.000005 -0.000001 -7.480351 1.406672 0.777424 -0.000007 0.000000 0.000000 4.981265 -3.658959 -6.047871 -17.032282 -2.680994 -0.494284 11.141849 1.321217 8.654168 1.572080 13.670054 -2.328180 -0.000000 0.000004 -0.000000 0.000000 0.000000 0.000000 10.846982 -7.980552 -4.897370 -34.932292 5.200663 1.831969 22.759176 -4.128965 9.169047 1.802880 14.562610 -2.472158 0.000001 0.000006 0.000001 -0.000000 0.000000 0.000000 3.343475 -6.404794 -0.693097 2.053516 -15.923736 -2.984714 3.135593 -16.039914 -2.118782 
-26.492380 46.903030 56.488213 -0.006586 -18.762217 0.004460 0.000064 0.000120 0.060441 -0.007588 0.000337 -0.017434 0.000007 -0.000011 -0.030598 0.000011 0.000002 -0.010956 -0.000011 0.000002 0.035174 -0.000000 -0.000001 -0.000000 -12.057630 -10.221803 8.422736 25.945889 0.055657 0.244571 -16.079143 0.210197 1.945122 9.075743 25.963810 -14.252804 0.000000 -0.000014 0.000000 -0.000000 0.000000 0.000000 -0.000000 -0.000001 -0.000000 -26.377388 -15.709597 5.457203 69.720235 -0.363623 -0.525009 -45.139655 0.166290 2.963303 10.665371 28.660929 -16.379014 0.000000 -0.000020 0.000000 0.000000 -0.000000 0.000000 -2.047988 -2.829686 2.934541 -3.624594 -3.546992 4.369693 -7.813106 -1.956771 3.769301 -8.503658 -0.019209 0.033849 -0.000014 0.000003 0.000003 0.000003 0.000002 -0.000006 0.034562 0.040911 -0.036932 0.018184 0.020451 -0.017865 -0.000000 0.000006 -0.000005 15.482797 20.291013 -3.554568 15.439859 18.594717 -5.627635 -0.000002 0.000003 0.000003 -13.722128 2.279416 2.351053 -0.000005 0.000001 0.000002 2.989099 -7.967560 -12.623753 -15.256949 -2.410238 -0.405844 10.768071 0.940394 17.899163 4.090699 27.051068 -5.378626 -0.000000 0.000004 0.000000 -0.000000 -0.000000 0.000001 12.861388 -16.424609 -8.272659 -46.742727 6.576813 3.111438 31.002792 -5.819193 18.326412 5.774175 30.513173 -6.451043 0.000001 0.000006 0.000000 -0.000000 0.000000 0.000000 4.247074 -13.999631 -0.954505 2.741801 -28.916839 -4.137887 5.028997 -28.348634 -2.563451 
-37.772049 47.920574 48.904335 -0.186224 -30.212806 0.079235 0.000884 0.008027 1.475634 -0.031275 -0.002436 -0.733391 0.000362 -0.000017 -0.746980 0.000410 -0.000009 -0.285792 -0.000578 0.000016 1.936836 -0.000000 0.000004 -0.000000 -14.105821 -10.287897 9.020414 23.088749 0.044162 0.219197 -11.195138 -0.258216 4.377731 24.024767 31.215966 -21.902195 -0.000000 -0.000014 0.000000 0.000001 0.000000 -0.000000 -0.000000 0.000004 -0.000000 -30.210958 -18.730486 2.828651 77.092871 -0.432414 -0.545703 -48.229858 0.288775 7.409686 22.042113 34.061487 -24.636301 0.000001 -0.000021 -0.000000 -0.000000 -0.000000 0.000000 -2.991944 -4.129143 4.185898 -5.227594 -5.155304 6.018520 -11.234778 -3.055947 5.178660 -3.481412 -0.430224 0.866310 -0.000012 -0.000001 0.000002 0.000003 -0.000002 -0.000007 0.842166 1.020763 -0.895836 0.995395 1.101316 -0.978472 -0.000004 0.000009 -0.000003 17.583842 22.826993 -4.629791 17.697112 20.875493 -7.298836 0.000002 0.000003 0.000005 -15.362475 0.321880 7.727592 -0.000002 0.000005 0.000001 -0.160142 -9.408728 -17.022553 -10.583834 -1.685234 -0.213511 8.543687 0.404615 23.034475 5.775479 33.661027 -7.382916 -0.000000 0.000004 0.000000 0.000000 0.000000 0.000000 14.368092 -20.866375 -8.630005 -55.403581 7.401092 4.213500 37.340665 -6.792508 22.740299 9.770226 40.790781 -10.465401 0.000001 0.000006 0.000001 0.000000 0.000001 0.000000 2.205662 -24.571928 -0.846369 1.581912 -40.182973 -3.304145 6.127630 -36.618434 -1.700442 
